PathFileType	4	(X/Y/Z)	D:\TRACE\spotREDO_2-26-24\spot_justArm_Motion_3_5-platform.trc
DataRate	CameraRate	NumFrames	NumMarkers	Units	OrigDataRate	OrigDataStartFrame	OrigNumFrames
100.00	100.00	      54	5	mm	100.00	5251	      7000
Frame#	Time	Left_Front			Right_Front			Left_Aft			Right_Aft			Post			
		X1	Y1	Z1	X2	Y2	Z2	X3	Y3	Z3	X4	Y4	Z4	X5	Y5	Z5	

5251	52.500	-725.35553	-10.62105	-577.59662	689.33038	-1.18420	-492.65063	-796.89209	11.69521	641.72040	772.59650	17.79112	645.53345	-16.65447	611.68140	-990.95740	
5252	52.510	-725.40729	-10.51083	-577.41370	689.40430	-1.16400	-492.68893	-796.79071	11.70946	641.74579	772.60266	17.78149	645.53455	-16.54964	611.66241	-990.87250	
5253	52.520	-725.16357	-10.65504	-577.65155	689.53210	-1.15853	-492.65790	-796.60333	11.72820	641.74792	772.72223	17.79567	645.52057	-16.31445	611.61365	-990.81940	
5254	52.530	-725.15479	-10.61540	-577.64063	689.62177	-1.14902	-492.64438	-796.48096	11.73824	641.73285	772.78180	17.81236	645.52679	-16.20203	611.64502	-990.75024	
5255	52.540	-725.19452	-10.61356	-577.43982	689.77649	-1.19167	-492.64459	-796.47693	11.76185	641.72461	772.85596	17.87018	645.56274	-16.07159	611.66376	-990.75574	
5256	52.550	-725.10455	-10.62546	-577.41022	689.86377	-1.20700	-492.63129	-796.27045	11.77239	641.71503	772.93927	17.91499	645.62726	-15.95480	611.68353	-990.71393	
5257	52.560	-725.03864	-10.60827	-577.43549	689.96954	-1.19591	-492.68027	-796.20941	11.77529	641.69586	773.01611	17.81895	645.58740	-15.78704	611.69910	-990.73730	
5258	52.570	-725.00262	-10.63260	-577.44733	690.02557	-1.24252	-492.70139	-796.11792	11.79233	641.62036	773.10071	17.85502	645.66333	-15.54361	611.62799	-990.81726	
5259	52.580	-724.93872	-10.61380	-577.42889	690.06799	-1.20591	-492.72733	-795.97540	11.75804	641.64844	773.18781	17.79222	645.65509	-15.41303	611.70966	-990.75446	
5260	52.590	-724.84912	-10.65135	-577.40918	690.13525	-1.14751	-492.72266	-795.88574	11.74491	641.61182	773.25745	17.79071	645.68896	-15.22585	611.72552	-990.77887	
5261	52.600	-724.73932	-10.57615	-577.41968	690.16211	-1.13552	-492.75931	-795.74573	11.73961	641.62671	773.29224	17.79373	645.73303	-15.10549	611.77997	-990.80798	
5262	52.610	-724.56464	-10.62171	-577.38013	690.22217	-1.11093	-492.79547	-795.67316	11.72084	641.64612	773.41071	17.73744	645.76837	-15.01775	611.85974	-990.83582	
5263	52.620	-724.38605	-10.58524	-577.35858	690.30298	-1.10516	-492.81155	-795.54230	11.61541	641.64856	773.59589	17.66689	645.75250	-14.87213	611.93280	-990.82098	
5264	52.630	-724.23114	-10.56264	-577.27942	690.36969	-1.04311	-492.71860	-795.33234	11.67705	641.74280	773.76355	17.59362	645.74188	-14.82374	612.08197	-990.67682	
5265	52.640	-724.05878	-10.52847	-577.30609	690.49915	-0.90440	-492.77994	-795.18781	11.57788	641.82275	774.31421	17.21920	645.58331	-14.53592	612.24408	-990.51599	
5266	52.650	-723.94250	-10.47725	-577.23737	690.63892	-0.87992	-492.69577	-795.12433	11.54767	641.78009	774.32452	17.24251	645.58936	-14.46564	612.31512	-990.38965	
5267	52.660	-723.88202	-10.46287	-577.23535	690.82343	-0.84014	-492.68839	-795.19348	11.38171	641.68231	774.38330	17.18892	645.57037	-14.26955	612.35150	-990.31848	
5268	52.670	-723.78052	-10.39577	-577.24908	690.86682	-0.83449	-492.73102	-795.07062	11.40922	641.73859	774.55695	17.10100	645.54358	-14.24518	612.41400	-990.25970	
5269	52.680	-723.65515	-10.43052	-577.30841	691.01727	-0.81306	-492.74854	-794.93878	11.39772	641.72546	774.36157	17.25675	645.70465	-14.18186	612.45020	-990.22888	
5270	52.690	-723.62177	-10.40100	-577.30206	691.20862	-0.80511	-492.81412	-794.80304	11.35790	641.71765	774.48553	17.23163	645.71130	-14.03559	612.44189	-990.19098	
5271	52.700	-723.53241	-10.41241	-577.30243	691.34607	-0.81689	-492.81314	-794.68463	11.33289	641.78308	774.58649	17.19554	645.74646	-13.82401	612.48163	-990.03217	
5272	52.710	-723.42755	-10.44146	-577.37329	691.48456	-0.87595	-492.80823	-794.52911	11.31785	641.77637	775.11810	17.91152	646.38635	-13.69950	612.48297	-990.05176	
5273	52.720	-723.35779	-10.44519	-577.30908	691.60681	-0.90103	-492.80121	-794.39960	11.28026	641.83649	774.72168	17.13937	645.80457	-13.64655	612.49005	-990.10657	
5274	52.730	-723.23090	-10.41568	-577.32660	691.71503	-0.81536	-492.85471	-794.30872	11.27653	641.76343	775.38452	18.06318	646.50195	-13.47769	612.44659	-990.19464	
5275	52.740	-723.11548	-10.33958	-577.34833	691.76831	-0.79774	-492.92389	-794.16498	11.29300	641.72534	775.05103	17.41131	645.79889	-13.41087	612.43555	-990.29846	
5276	52.750	-722.98279	-10.30749	-577.36450	691.91016	-0.83834	-492.89548	-794.04895	11.30519	641.71088	775.09711	17.68430	645.97180	-13.11505	612.43054	-990.37988	
5277	52.760	-722.93591	-10.26714	-577.34686	691.94824	-0.82916	-492.81830	-794.02850	11.28709	641.74005	775.05554	17.58078	645.96930	-13.03627	612.48279	-990.40363	
5278	52.770	-722.85645	-10.25788	-577.34729	692.03021	-0.80007	-492.84210	-793.93744	11.23916	641.79034	775.20361	17.54350	645.99963	-12.93457	612.51892	-990.42352	
5279	52.780	-722.77576	-10.24416	-577.32294	692.06110	-0.81615	-492.76117	-793.88281	11.25901	641.77887	775.25012	17.48961	646.01929	-12.93676	612.56689	-990.31665	
5280	52.790	-722.63745	-10.22762	-577.32220	692.17017	-0.77847	-492.82828	-793.77582	11.24066	641.76160	775.41888	17.55013	646.04053	-13.00157	612.61047	-990.24292	
5281	52.800	-722.48346	-10.22092	-577.31396	692.30109	-0.78254	-492.76413	-793.69031	11.23793	641.72760	775.56268	17.56795	646.04193	-13.11467	612.70679	-990.24817	
5282	52.810	-722.36987	-10.18778	-577.29285	692.35767	-0.76406	-492.75418	-793.67352	11.21656	641.73358	775.60284	17.52587	646.07745	-13.10616	612.76514	-990.15424	
5283	52.820	-722.26453	-10.19318	-577.29529	692.39899	-0.78573	-492.72522	-793.55499	11.25688	641.76111	775.66064	17.51250	646.09027	-13.07155	612.77441	-990.09485	
5284	52.830	-722.17151	-10.23393	-577.30408	692.50720	-0.81081	-492.68286	-793.48456	11.27661	641.73822	775.72595	17.51065	646.05499	-13.01806	612.74310	-990.03046	
5285	52.840	-722.03796	-10.30822	-577.28949	692.49689	-0.84594	-492.78485	-793.44165	11.33057	641.74847	775.85370	17.55522	646.02502	-12.93189	612.72986	-989.97418	
5286	52.850	-721.99689	-10.30254	-577.30933	692.59192	-0.83063	-492.70389	-793.30493	11.34822	641.72998	775.96655	17.62612	646.05444	-12.84051	612.69067	-990.06641	
5287	52.860	-721.80414	-10.39910	-577.26428	692.69843	-0.87745	-492.68915	-793.20551	11.35244	641.72559	776.07458	17.65510	646.04523	-12.73213	612.66248	-990.22388	
5288	52.870	-721.75641	-10.39893	-577.28717	692.77618	-0.83314	-492.66901	-793.14044	11.32027	641.73468	776.11597	17.65260	646.01587	-12.54858	612.58508	-990.45428	
5289	52.880	-721.68115	-10.44416	-577.27020	692.79865	-0.87439	-492.71768	-793.05884	11.33055	641.74561	776.16064	17.60698	646.03650	-12.47961	612.51709	-990.51593	
5290	52.890	-721.60883	-10.47231	-577.23328	692.83716	-0.84726	-492.70471	-792.99554	11.36133	641.71063	776.23047	17.67496	646.02234	-12.47877	612.45404	-990.62903	
5291	52.900	-721.59747	-10.42626	-577.24567	692.89075	-0.84419	-492.70956	-792.90930	11.51526	641.75385	776.27295	17.69232	646.02118	-12.33553	612.42169	-990.69128	
5292	52.910	-721.56818	-10.41074	-577.26599	692.84857	-0.78737	-492.77707	-792.77374	11.55091	641.74341	776.36310	17.70108	646.02673	-12.26799	612.43726	-990.71057	
5293	52.920	-721.50610	-10.39072	-577.23083	693.00757	-0.72312	-492.76511	-792.70898	11.56152	641.76593	776.42236	17.75776	646.04553	-12.21834	612.43402	-990.69904	
5294	52.930	-721.38135	-10.46537	-577.22412	693.12537	-0.98805	-492.66431	-792.65387	11.52063	641.80231	776.45667	17.72170	646.03650	-12.26629	612.46838	-990.61646	
5295	52.940	-721.37592	-10.48561	-577.25372	693.19354	-0.99169	-492.61401	-792.53540	11.50904	641.80286	776.52063	17.77966	646.05603	-12.19063	612.39990	-990.54706	
5296	52.950	-721.32404	-10.58290	-577.27527	693.19666	-1.06183	-492.71243	-792.68475	11.48055	641.71216	776.57556	17.82740	646.02271	-12.16112	612.39691	-990.41473	
5297	52.960	-721.27734	-10.65445	-577.28943	693.26965	-1.08052	-492.70438	-792.58862	11.60019	641.72528	776.62469	17.84516	645.99463	-12.04212	612.30322	-990.32642	
5298	52.970	-721.25885	-10.67842	-577.30872	693.33698	-1.10258	-492.70105	-792.51941	11.58143	641.70166	776.66913	17.89740	646.00000	-11.98510	612.20514	-990.25122	
5299	52.980	-721.21527	-10.72564	-577.32721	693.38617	-1.17178	-492.74649	-792.45941	11.66325	641.71655	776.72217	17.93579	645.90460	-11.86049	612.06171	-990.22382	
5300	52.990	-721.24573	-10.74074	-577.35193	693.45209	-1.23417	-492.74121	-792.36481	11.70672	641.70715	776.76013	18.00177	645.88538	-11.85844	611.96869	-990.34583	
5301	53.000	-721.18768	-10.77965	-577.37964	693.53992	-1.29554	-492.73892	-792.28394	11.70701	641.71936	776.91266	18.09909	645.81226	-11.71487	611.84253	-990.52820	
5302	53.010	-721.17548	-10.79649	-577.38135	693.57416	-1.38560	-492.74298	-792.26227	11.74764	641.63300	776.94617	18.19004	645.76447	-11.77055	611.66949	-990.78534	
5303	53.020	-721.15436	-10.86332	-577.40192	693.68158	-1.43928	-492.77893	-792.16675	11.83452	641.68628	777.12488	18.33244	645.75476	-11.67178	611.40778	-991.19629	
5304	53.030	-721.10101	-10.88975	-577.40417	693.77338	-1.46783	-492.75031	-792.13092	11.88928	641.62463	777.11505	18.33222	645.72260	-11.01538	611.18823	-991.14551	
